<svg width="36" height="36" viewBox="0 0 36 36" fill="none" xmlns="http://www.w3.org/2000/svg">
<g clip-path="url(#clip0_58156_1205)">
<path d="M3 18C3 9 9.585 3 17.709 3C24.3135 3 29.64 6.5025 31.5 12" stroke="#FF2F2F" stroke-width="3.3" stroke-linecap="round" stroke-linejoin="round"/>
<path d="M25.5 10.5L31.5 12L33 5.99998" stroke="#FF2F2F" stroke-width="3.3" stroke-linecap="round" stroke-linejoin="round"/>
<path d="M26.2031 21.1281H17.6719C17.4422 21.1281 17.2328 21.2407 17.0858 21.4217C16.9396 21.6015 16.8625 21.8381 16.8625 22.0781C16.8625 22.3182 16.9396 22.5547 17.0858 22.7346C17.2328 22.9156 17.4422 23.0281 17.6719 23.0281H26.2031C26.4328 23.0281 26.6422 22.9156 26.7892 22.7346C26.9354 22.5547 27.0125 22.3182 27.0125 22.0781C27.0125 21.8381 26.9354 21.6015 26.7892 21.4217C26.6422 21.2407 26.4328 21.1281 26.2031 21.1281Z" fill="#FF2F2F" stroke="#FF2F2F" stroke-width="0.4"/>
<path d="M15.4429 18.2196V15.0679H18.5946C18.8414 15.0679 19.078 14.9698 19.2525 14.7954C19.427 14.6209 19.525 14.3842 19.525 14.1375C19.525 13.8908 19.427 13.6541 19.2525 13.4796C19.078 13.3052 18.8414 13.2071 18.5946 13.2071H15.4429V10.0554C15.4429 9.80861 15.3448 9.57197 15.1704 9.3975C14.9959 9.22302 14.7592 9.125 14.5125 9.125C14.2658 9.125 14.0291 9.22302 13.8546 9.3975C13.6802 9.57197 13.5821 9.80861 13.5821 10.0554V13.2071H10.4304C10.1836 13.2071 9.94697 13.3052 9.7725 13.4796C9.59802 13.6541 9.5 13.8908 9.5 14.1375C9.5 14.3842 9.59802 14.6209 9.7725 14.7954C9.94697 14.9698 10.1836 15.0679 10.4304 15.0679H13.5821V18.2196C13.5821 18.4664 13.6802 18.703 13.8546 18.8775C14.0291 19.052 14.2658 19.15 14.5125 19.15C14.7592 19.15 14.9959 19.052 15.1704 18.8775C15.3448 18.703 15.4429 18.4664 15.4429 18.2196Z" fill="#20CD3C" stroke="#20CD3C" stroke-width="0.5"/>
<path d="M33 18C33 27 26.415 33 18.291 33C11.688 33 6.36 29.4975 4.5 24" stroke="#20CD3C" stroke-width="3.3" stroke-linecap="round" stroke-linejoin="round"/>
<path d="M10.5 25.5L4.5 24L3 30" stroke="#20CD3C" stroke-width="3.3" stroke-linecap="round" stroke-linejoin="round"/>
</g>
<defs>
<clipPath id="clip0_58156_1205">
<rect width="36" height="36" fill="white"/>
</clipPath>
</defs>
</svg>
