<svg width="16" height="16" viewBox="0 0 16 16" fill="none" xmlns="http://www.w3.org/2000/svg">
<path d="M16.0001 3.8998H13.2001V1.2998H12.6001V3.8998H9.9001V4.6998H12.6001V7.2998H13.2001V4.6998H16.0001V3.8998ZM6.9001 8.9998C6.5001 8.7998 5.8001 8.0998 5.8001 7.6998C5.8001 7.2998 5.9001 6.9998 6.6001 6.4998C7.3001 5.9998 7.8001 5.2998 7.8001 4.3998C7.8001 3.2998 7.3001 2.2998 6.5001 1.9998H7.8001L8.7001 1.2998H4.5001C2.6001 1.2998 0.900098 2.6998 0.900098 4.3998C0.900098 6.0998 2.2001 7.39981 4.1001 7.39981H4.5001C4.3001 7.59981 4.3001 7.7998 4.3001 8.0998C4.3001 8.5998 4.6001 8.8998 4.9001 9.2998H4.2001C1.9001 9.2998 0.100098 10.7998 0.100098 12.2998C0.100098 13.7998 2.1001 14.7998 4.4001 14.7998C7.0001 14.7998 8.5001 13.2998 8.5001 11.7998C8.4001 10.4998 8.0001 9.7998 6.9001 8.9998ZM4.7001 6.89981C3.6001 6.89981 2.6001 5.6998 2.4001 4.2998C2.2001 2.8998 2.9001 1.7998 4.0001 1.7998C5.1001 1.7998 6.1001 2.9998 6.3001 4.3998C6.5001 5.7998 5.8001 6.99981 4.7001 6.89981ZM4.3001 14.0998C2.7001 14.0998 1.5001 13.0998 1.5001 11.8998C1.5001 10.6998 2.9001 9.6998 4.5001 9.6998C4.9001 9.6998 5.2001 9.7998 5.5001 9.8998C6.4001 10.4998 7.0001 10.7998 7.2001 11.4998C7.2001 11.5998 7.3001 11.7998 7.3001 11.8998C7.3001 13.0998 6.5001 14.0998 4.3001 14.0998Z" fill="black"/>
</svg>
